<?xml version="1.0" encoding="UTF-8" standalone="no"?>
<svg width="49px" height="33px" viewBox="0 0 49 33" version="1.1" xmlns="http://www.w3.org/2000/svg" xmlns:xlink="http://www.w3.org/1999/xlink">
    <!-- Generator: Sketch 46.2 (44496) - http://www.bohemiancoding.com/sketch -->
    <title>Group</title>
    <desc>Created with Sketch.</desc>
    <defs>
        <polygon id="path-1" points="0.257732526 33.9358405 50.6301228 33.9358405 50.6301228 0.323198481 0.257732526 0.323198481"></polygon>
    </defs>
    <g id="Page-1" stroke="none" stroke-width="1" fill="none" fill-rule="evenodd">
        <g id="Desktop-Copy-3" transform="translate(-28.000000, -11.000000)">
            <g id="Group-2" transform="translate(27.000000, 10.000000)">
                <g id="Group-4">
                    <g id="Group">
                        <g id="Group-67">
                            <path d="M49.6267883,10.2286502 C50.8555737,16.1716239 46.6290206,21.0247723 42.5092052,22.5237668 L42.5092052,19.8748321 C45.933273,17.8503168 47.8480434,14.3268069 47.2460167,10.9493828 C45.4412381,0.733725192 25.6407416,0.690416596 11.6815315,7.81758951 L11.6815315,6.88483869 C25.6563618,-1.56486241 47.3377851,-0.862875306 49.6267883,10.2286502 Z M24.2258161,29.6380118 C30.1536642,29.0924527 37.2692947,26.989077 41.571996,24.445505 L41.571996,28.1157469 C36.8293271,30.6993956 30.0130828,32.3645142 24.8044126,32.8667646 C11.6372744,34.137581 3.0136482,30.3128502 1.40086739,23.5605875 C0.138238355,18.2943915 2.33156818,13.8381308 6.37458447,10.3165602 L6.37458447,11.6158181 C4.12918746,14.0456242 2.4350517,17.9582651 3.12494179,21.6472525 C4.53205725,29.1325294 14.5810224,30.5229292 24.2258161,29.6380118 Z" id="Fill-55" fill="#FFFFFF"></path>
                            <path d="M40.7905979,8.61420912 L38.2620856,8.61420912 L38.2620856,19.7936446 C38.2620856,21.1064768 38.9031627,22.2447819 40.7905979,22.4264194 L40.7905979,8.61420912 Z" id="Fill-57" fill="#FFFFFF"></path>
                            <path d="M10.6873087,12.6958827 L8.15489141,12.6958827 L8.15358973,20.0021076 C8.15358973,21.3142934 8.79531769,22.4551841 10.6873087,22.6355288 L10.6873087,12.6958827 Z" id="Fill-59" fill="#FFFFFF"></path>
                            <mask id="mask-2" fill="white">
                                <use xlink:href="#path-1"></use>
                            </mask>
                            <g id="Clip-62"></g>
                            <polygon id="Fill-61" fill="#FFFFFF" mask="url(#mask-2)" points="8.15502158 11.3345707 10.6796288 11.3345707 10.6796288 8.95259793 8.15502158 8.95259793"></polygon>
                            <path d="M25.8288994,22.5189835 C23.783961,22.5189835 22.9163917,21.1059597 22.9163917,19.7123279 L22.9163917,10.0150806 L25.4227754,10.0150806 L25.4227754,12.6963352 L27.3095597,12.6963352 L27.3095597,14.7059834 L25.4227754,14.7059834 L25.4227754,19.557839 C25.4227754,20.1266683 25.6948264,20.4446956 26.2916464,20.4446956 L27.3095597,20.4446956 L27.3095597,22.5189835 L25.8288994,22.5189835" id="Fill-63" fill="#FFFFFF" mask="url(#mask-2)"></path>
                            <path d="M32.4790494,14.5889855 C31.6212426,14.5889855 30.9586878,15.0265963 30.6820809,15.6199887 C30.5174185,15.9761534 30.4607954,16.2502257 30.4419211,16.6878365 L34.3000989,16.6878365 C34.2512859,15.6199887 33.7644578,14.5889855 32.4790494,14.5889855 M30.4419211,18.3833357 C30.4419211,19.6573841 31.2405014,20.5940133 32.663237,20.5940133 C33.7722679,20.5940133 34.3222274,20.2895603 34.9626537,19.6573841 L36.5110014,21.1247052 C35.5191217,22.0988254 34.4790798,22.6896323 32.6450135,22.6896323 C30.243415,22.6896323 27.9439983,21.3890816 27.9439983,17.5992562 C27.9439983,14.3608074 29.9518388,12.528272 32.5883904,12.528272 C35.2613891,12.528272 36.8032284,14.6736635 36.8032284,17.4861367 L36.8032284,18.3833357 L30.4419211,18.3833357" id="Fill-64" fill="#FFFFFF" mask="url(#mask-2)"></path>
                            <path d="M17.4957429,14.7057248 C18.230541,14.7057248 18.5364356,15.0670607 18.5364356,15.65205 L18.5364356,22.5329456 L21.0421685,22.5329456 L21.0421685,15.6397684 C21.0421685,14.2416118 20.2910995,12.7006014 18.0912613,12.7006014 L12.9138314,12.6960767 L12.9138314,22.5329456 L15.4208659,22.5329456 L15.4208659,14.7057248 L17.4957429,14.7057248 Z" id="Fill-65" fill="#FFFFFF" mask="url(#mask-2)"></path>
                            <path d="M43.7129984,9.35627284 C43.7129984,9.23539661 43.6407552,9.19596639 43.4760927,9.19596639 L43.3628466,9.19596639 L43.3198912,9.19596639 L43.3198912,9.53920318 C43.3426706,9.53920318 43.4578692,9.54372796 43.4760927,9.54372796 C43.6407552,9.54372796 43.7129984,9.49072341 43.7129984,9.37566475 L43.7129984,9.35627284 Z M43.9590158,10.211456 L43.7709231,10.211456 C43.7546521,10.211456 43.739032,10.2004673 43.7325236,10.1856001 L43.4760927,9.75639256 C43.4728385,9.7466966 43.4500591,9.73700065 43.4409474,9.73700065 L43.3680533,9.73700065 L43.3270504,9.73700065 L43.3270504,10.1636226 C43.3270504,10.1856001 43.3101286,10.211456 43.2808408,10.211456 L43.113575,10.211456 C43.0901448,10.211456 43.0706196,10.1856001 43.0706196,10.1636226 L43.0706196,9.08413972 C43.0706196,9.02208561 43.093399,8.99558333 43.1487203,8.98782657 C43.2072959,8.9807162 43.3680533,8.97554503 43.4578692,8.97554503 C43.7676689,8.97554503 43.9564124,9.0660406 43.9564124,9.35627284 L43.9564124,9.37566475 C43.9564124,9.5566559 43.8665965,9.65102985 43.7273168,9.69692404 L43.9915578,10.1422915 C43.9941611,10.1506947 43.998717,10.1636226 43.998717,10.1733186 C43.998717,10.1901249 43.9883036,10.211456 43.9590158,10.211456 L43.9590158,10.211456 Z M43.5131906,8.78097954 C43.0536977,8.78097954 42.6827191,9.15588978 42.6827191,9.61353883 C42.6827191,10.0692487 43.0536977,10.4402805 43.5131906,10.4402805 C43.9726834,10.4402805 44.3501704,10.0692487 44.3501704,9.61353883 C44.3501704,9.15588978 43.9726834,8.78097954 43.5131906,8.78097954 L43.5131906,8.78097954 Z M43.5131906,10.6122221 C42.9547701,10.6122221 42.5095957,10.1636226 42.5095957,9.61353883 C42.5095957,9.06280862 42.9547701,8.61420912 43.5131906,8.61420912 C44.067706,8.61420912 44.5232938,9.06280862 44.5232938,9.61353883 C44.5232938,10.1636226 44.067706,10.6122221 43.5131906,10.6122221 L43.5131906,10.6122221 Z" id="Fill-66" fill="#FFFFFF" mask="url(#mask-2)"></path>
                        </g>
                    </g>
                </g>
            </g>
        </g>
    </g>
</svg>