<!-- Generator: Adobe Illustrator 19.2.1, SVG Export Plug-In  -->
<svg version="1.1"
     xmlns="http://www.w3.org/2000/svg" xmlns:xlink="http://www.w3.org/1999/xlink" xmlns:a="http://ns.adobe.com/AdobeSVGViewerExtensions/3.0/"
     x="0px" y="0px" width="185.5px" height="32px" viewBox="0 0 185.5 32" style="enable-background:new 0 0 185.5 32;"
     xml:space="preserve">
<style type="text/css">
    .st0{fill:#FFFFFF;}
    .st1{fill-rule:evenodd;clip-rule:evenodd;fill:#FFFFFF;}
</style>
<defs>
</defs>
<path class="st0" d="M64.6,9.4h4c1.4,0,2.5,0.3,3.2,1c0.7,0.7,1.1,1.6,1.1,2.8c0,1.2-0.4,2.2-1.1,2.8c-0.7,0.7-1.8,1-3.2,1h-2.9v4.8
    h-1.1V9.4z M65.7,16h2.9c1.1,0,1.8-0.2,2.4-0.7s0.8-1.2,0.8-2.2c0-1-0.3-1.7-0.8-2.1c-0.5-0.4-1.3-0.7-2.4-0.7h-2.9V16z"/>
<path class="st0" d="M75,17.5c0,1.1,0.3,2,0.9,2.7c0.6,0.6,1.4,1,2.5,1c0.4,0,0.9-0.1,1.3-0.2c0.4-0.1,0.8-0.3,1.1-0.6l0.5,0.8
    c-0.3,0.2-0.7,0.5-1.2,0.7c-0.5,0.2-1.1,0.3-1.7,0.3c-0.7,0-1.4-0.1-1.9-0.3c-0.6-0.2-1-0.5-1.4-1c-0.4-0.4-0.6-0.9-0.8-1.5
    c-0.2-0.6-0.3-1.2-0.3-2c0-0.7,0.1-1.3,0.3-1.9c0.2-0.6,0.5-1.1,0.8-1.5c0.4-0.4,0.8-0.7,1.3-1c0.5-0.2,1.1-0.3,1.7-0.3
    c0.6,0,1.1,0.1,1.5,0.3c0.4,0.2,0.8,0.5,1.1,0.8c0.3,0.3,0.5,0.8,0.6,1.2s0.2,1,0.2,1.5c0,0.4,0,0.7-0.1,1H75z M78.1,13.6
    c-0.9,0-1.6,0.3-2.2,0.8s-0.9,1.3-0.9,2.2h5.6v-0.3c0-0.9-0.2-1.5-0.6-2C79.6,13.8,79,13.6,78.1,13.6z"/>
<path class="st0" d="M87.7,22.1c-0.6,0-1.2-0.1-1.8-0.3c-0.5-0.2-1-0.5-1.3-0.9s-0.7-0.9-0.9-1.5c-0.2-0.6-0.3-1.2-0.3-2
    c0-0.7,0.1-1.4,0.3-2c0.2-0.6,0.5-1.1,0.9-1.5c0.4-0.4,0.8-0.7,1.3-0.9c0.5-0.2,1.1-0.3,1.8-0.3s1.2,0.1,1.8,0.3
    c0.5,0.2,1,0.5,1.3,0.9c0.4,0.4,0.7,0.9,0.9,1.5c0.2,0.6,0.3,1.2,0.3,2c0,0.7-0.1,1.4-0.3,2c-0.2,0.6-0.5,1.1-0.9,1.5
    s-0.8,0.7-1.3,0.9C89,22,88.4,22.1,87.7,22.1z M84.6,17.4c0,1.2,0.3,2.1,0.8,2.8c0.6,0.7,1.3,1,2.3,1c1,0,1.8-0.3,2.3-1
    c0.6-0.7,0.8-1.6,0.8-2.8c0-1.2-0.3-2.1-0.8-2.8c-0.6-0.6-1.3-1-2.3-1c-1,0-1.8,0.3-2.3,1C84.9,15.2,84.6,16.2,84.6,17.4z"/>
<path class="st0" d="M95.5,14.6c0.3-0.6,0.7-1.1,1.3-1.4c0.6-0.4,1.3-0.5,2.1-0.5c1.2,0,2.2,0.4,2.9,1.2c0.7,0.8,1,1.9,1,3.4
    c0,0.7-0.1,1.4-0.3,2c-0.2,0.6-0.5,1.1-0.8,1.5s-0.8,0.8-1.3,1c-0.5,0.2-1.1,0.3-1.7,0.3c-0.3,0-0.6,0-0.9-0.1
    c-0.3-0.1-0.6-0.1-0.9-0.3s-0.6-0.3-0.8-0.5c-0.3-0.2-0.5-0.5-0.6-0.9v5.3h-1.1V12.9h0.5c0.3,0,0.5,0.2,0.5,0.5V14.6z M95.5,17.5
    c0,1.1,0.3,2,0.8,2.7c0.5,0.7,1.3,1,2.3,1c1,0,1.8-0.3,2.3-1c0.5-0.7,0.8-1.6,0.8-2.8c0-1.1-0.2-2-0.7-2.7c-0.5-0.6-1.2-1-2.2-1
    c-1,0-1.8,0.4-2.4,1.1S95.5,16.3,95.5,17.5z"/>
<path class="st0" d="M107.6,21.9c-0.1,0-0.2,0-0.3,0c-0.1,0-0.2,0-0.3,0c-0.7,0-1.1-0.2-1.4-0.5c-0.3-0.4-0.5-0.9-0.5-1.6V8.9h1.1
    v10.8c0,0.5,0.1,0.8,0.3,1s0.5,0.3,1,0.3h0.2V21.9z"/>
<path class="st0" d="M110.1,17.5c0,1.1,0.3,2,0.9,2.7c0.6,0.6,1.4,1,2.5,1c0.4,0,0.9-0.1,1.3-0.2c0.4-0.1,0.8-0.3,1.1-0.6l0.5,0.8
    c-0.3,0.2-0.7,0.5-1.2,0.7c-0.5,0.2-1.1,0.3-1.7,0.3c-0.7,0-1.4-0.1-1.9-0.3c-0.6-0.2-1-0.5-1.4-1c-0.4-0.4-0.6-0.9-0.8-1.5
    c-0.2-0.6-0.3-1.2-0.3-2c0-0.7,0.1-1.3,0.3-1.9c0.2-0.6,0.5-1.1,0.8-1.5c0.4-0.4,0.8-0.7,1.3-1c0.5-0.2,1.1-0.3,1.7-0.3
    c0.6,0,1.1,0.1,1.5,0.3c0.4,0.2,0.8,0.5,1.1,0.8c0.3,0.3,0.5,0.8,0.6,1.2s0.2,1,0.2,1.5c0,0.4,0,0.7-0.1,1H110.1z M113.2,13.6
    c-0.9,0-1.6,0.3-2.2,0.8s-0.9,1.3-0.9,2.2h5.6v-0.3c0-0.9-0.2-1.5-0.6-2C114.6,13.8,114,13.6,113.2,13.6z"/>
<path class="st0" d="M131.7,11c-0.4-0.3-0.8-0.5-1.3-0.6c-0.5-0.1-1-0.2-1.6-0.2c-0.7,0-1.4,0.1-2,0.4c-0.6,0.3-1.1,0.6-1.5,1.1
    c-0.4,0.5-0.7,1-0.9,1.7s-0.3,1.4-0.3,2.3c0,0.9,0.1,1.6,0.3,2.3s0.5,1.2,0.9,1.7c0.4,0.5,0.9,0.8,1.4,1.1s1.2,0.4,1.9,0.4
    c0.7,0,1.3-0.1,1.8-0.3c0.5-0.2,0.9-0.4,1.3-0.7l0.5,0.8c-0.3,0.3-0.8,0.6-1.4,0.8c-0.6,0.2-1.4,0.4-2.2,0.4c-0.9,0-1.8-0.2-2.5-0.5
    c-0.7-0.3-1.3-0.8-1.8-1.4c-0.5-0.6-0.8-1.3-1.1-2.1c-0.2-0.8-0.4-1.7-0.4-2.6c0-1,0.1-1.9,0.4-2.7c0.3-0.8,0.7-1.5,1.2-2
    c0.5-0.6,1.1-1,1.8-1.3s1.5-0.4,2.4-0.4c0.8,0,1.4,0.1,2,0.3c0.6,0.2,1,0.5,1.4,0.8L131.7,11z"/>
<path class="st0" d="M138,22.1c-0.6,0-1.2-0.1-1.8-0.3c-0.5-0.2-1-0.5-1.3-0.9s-0.7-0.9-0.9-1.5c-0.2-0.6-0.3-1.2-0.3-2
    c0-0.7,0.1-1.4,0.3-2c0.2-0.6,0.5-1.1,0.9-1.5c0.4-0.4,0.8-0.7,1.3-0.9c0.5-0.2,1.1-0.3,1.8-0.3s1.2,0.1,1.8,0.3
    c0.5,0.2,1,0.5,1.3,0.9c0.4,0.4,0.7,0.9,0.9,1.5c0.2,0.6,0.3,1.2,0.3,2c0,0.7-0.1,1.4-0.3,2c-0.2,0.6-0.5,1.1-0.9,1.5
    s-0.8,0.7-1.3,0.9C139.3,22,138.7,22.1,138,22.1z M134.9,17.4c0,1.2,0.3,2.1,0.8,2.8c0.6,0.7,1.3,1,2.3,1c1,0,1.8-0.3,2.3-1
    c0.6-0.7,0.8-1.6,0.8-2.8c0-1.2-0.3-2.1-0.8-2.8c-0.6-0.6-1.3-1-2.3-1c-1,0-1.8,0.3-2.3,1C135.1,15.2,134.9,16.2,134.9,17.4z"/>
<path class="st0" d="M150.9,20.3c-0.3,0.5-0.6,0.9-1.1,1.3s-1.1,0.5-1.9,0.5c-1,0-1.8-0.3-2.3-0.9c-0.5-0.6-0.8-1.5-0.8-2.7v-5.6
    h1.1v5.4c0,0.9,0.2,1.7,0.5,2.1c0.4,0.5,0.9,0.7,1.7,0.7c0.9,0,1.6-0.3,2.2-0.9c0.5-0.6,0.8-1.6,0.8-2.8v-4.5h1.1v8.9h-0.5
    c-0.3,0-0.5-0.2-0.5-0.5V20.3z"/>
<path class="st0" d="M154.9,12.9h0.5c0.3,0,0.5,0.2,0.5,0.5v1.2c0.3-0.6,0.7-1,1.3-1.4s1.2-0.5,2-0.5c1,0,1.8,0.3,2.4,0.9
    c0.6,0.6,0.8,1.4,0.8,2.5v5.8h-1.1v-5.5c0-0.9-0.2-1.6-0.5-2c-0.4-0.4-0.9-0.7-1.7-0.7c-1,0-1.7,0.3-2.3,1s-0.8,1.6-0.8,2.8v4.4
    h-1.1V12.9z"/>
<path class="st0" d="M166.7,13.8v5.4c0,0.7,0.1,1.2,0.4,1.4c0.3,0.3,0.8,0.4,1.5,0.4h0.5v0.9c-0.2,0-0.5,0.1-0.8,0.1
    c-0.9,0-1.6-0.2-2-0.6c-0.4-0.4-0.6-1.1-0.6-2.1v-5.4H164v-0.9h1.6v-2.3h1.1v2.3h2.4v0.9H166.7z"/>
<path class="st0" d="M171.7,17.5c0,1.1,0.3,2,0.9,2.7c0.6,0.6,1.4,1,2.5,1c0.4,0,0.9-0.1,1.3-0.2c0.4-0.1,0.8-0.3,1.1-0.6l0.5,0.8
    c-0.3,0.2-0.7,0.5-1.2,0.7c-0.5,0.2-1.1,0.3-1.7,0.3c-0.7,0-1.4-0.1-1.9-0.3c-0.6-0.2-1-0.5-1.4-1c-0.4-0.4-0.6-0.9-0.8-1.5
    c-0.2-0.6-0.3-1.2-0.3-2c0-0.7,0.1-1.3,0.3-1.9c0.2-0.6,0.5-1.1,0.8-1.5c0.4-0.4,0.8-0.7,1.3-1c0.5-0.2,1.1-0.3,1.7-0.3
    c0.6,0,1.1,0.1,1.5,0.3c0.4,0.2,0.8,0.5,1.1,0.8c0.3,0.3,0.5,0.8,0.6,1.2s0.2,1,0.2,1.5c0,0.4,0,0.7-0.1,1H171.7z M174.8,13.6
    c-0.9,0-1.6,0.3-2.2,0.8s-0.9,1.3-0.9,2.2h5.6v-0.3c0-0.9-0.2-1.5-0.6-2C176.2,13.8,175.6,13.6,174.8,13.6z"/>
<path class="st0" d="M180.7,12.9h0.5c0.3,0,0.5,0.2,0.5,0.5v1.2c0.3-0.6,0.7-1,1.2-1.3c0.5-0.3,1.1-0.5,1.8-0.5c0.2,0,0.3,0,0.5,0
    c0.1,0,0.2,0,0.3,0.1v0.9h-0.6c-1.1,0-1.8,0.3-2.4,1c-0.5,0.7-0.8,1.7-0.8,3v4.1h-1.1V12.9z"/>
<path class="st1" d="M23.2,28.5c5.9-0.5,13-2.6,17.3-5.2V27c-4.7,2.6-11.6,4.2-16.8,4.8C10.6,33,2,29.2,0.4,22.4
    c-1.3-5.3,0.9-9.7,5-13.2v1.3c-2.2,2.4-3.9,6.3-3.2,10C3.5,28,13.5,29.4,23.2,28.5z M48.6,9.1c1.2,5.9-3,10.8-7.1,12.3v-2.6
    c3.4-2,5.3-5.5,4.7-8.9C44.4-0.4,24.6-0.5,10.6,6.7V5.7C24.6-2.7,46.3-2,48.6,9.1z"/>
<path class="st1" d="M39.7,7.5h-2.5v11.2c0,1.3,0.6,2.5,2.5,2.6V7.5z"/>
<path class="st1" d="M9.6,11.5H7.1l0,7.3c0,1.3,0.6,2.5,2.5,2.6V11.5z"/>
<g>
    <rect x="7.1" y="7.8" class="st1" width="2.5" height="2.4"/>
    <path class="st1" d="M24.8,21.4c-2,0-2.9-1.4-2.9-2.8V8.9h2.5v2.7h1.9v2h-1.9v4.9c0,0.6,0.3,0.9,0.9,0.9h1v2.1H24.8"/>
    <path class="st1" d="M29.4,17.2c0,1.3,0.8,2.2,2.2,2.2c1.1,0,1.7-0.3,2.3-0.9l1.5,1.5c-1,1-2,1.6-3.9,1.6c-2.4,0-4.7-1.3-4.7-5.1
        c0-3.2,2-5.1,4.6-5.1c2.7,0,4.2,2.1,4.2,5v0.9H29.4 M31.4,13.4c-0.9,0-1.5,0.4-1.8,1c-0.2,0.4-0.2,0.6-0.2,1.1h3.9
        C33.2,14.5,32.7,13.4,31.4,13.4"/>
    <path class="st1" d="M16.5,13.6c0.7,0,1,0.4,1,0.9v6.9H20v-6.9c0-1.4-0.8-2.9-3-2.9l-5.2,0v9.8h2.5v-7.8H16.5z"/>
    <path class="st1" d="M42.5,9.5c-0.6,0-1-0.4-1-1c0-0.6,0.4-1,1-1c0.6,0,1,0.4,1,1C43.5,9,43,9.5,42.5,9.5z M42.5,7.6
        c-0.5,0-0.8,0.4-0.8,0.8c0,0.5,0.4,0.8,0.8,0.8c0.5,0,0.8-0.4,0.8-0.8C43.3,8,42.9,7.6,42.5,7.6z M42.9,9.1h-0.2c0,0,0,0,0,0
        l-0.3-0.4c0,0,0,0,0,0h-0.1h0V9c0,0,0,0,0,0h-0.2c0,0,0,0,0,0V7.9c0-0.1,0-0.1,0.1-0.1c0.1,0,0.2,0,0.3,0c0.3,0,0.5,0.1,0.5,0.4v0
        c0,0.2-0.1,0.3-0.2,0.3L42.9,9.1C42.9,9,43,9,42.9,9.1C43,9,42.9,9.1,42.9,9.1z M42.7,8.2c0-0.1-0.1-0.2-0.2-0.2h-0.1h0v0.3
        c0,0,0.1,0,0.2,0C42.6,8.4,42.7,8.3,42.7,8.2L42.7,8.2z"/>
</g>
</svg>
